<?xml version="1.0" encoding="UTF-8" standalone="no"?>
<svg
   xmlns:dc="http://purl.org/dc/elements/1.1/"
   xmlns:cc="http://creativecommons.org/ns#"
   xmlns:rdf="http://www.w3.org/1999/02/22-rdf-syntax-ns#"
   xmlns:svg="http://www.w3.org/2000/svg"
   xmlns="http://www.w3.org/2000/svg"
   xmlns:sodipodi="http://sodipodi.sourceforge.net/DTD/sodipodi-0.dtd"
   xmlns:inkscape="http://www.inkscape.org/namespaces/inkscape"
   height="631.00934pt"
   viewBox="0 -30 702.2433 631.00934"
   width="700.87183pt"
   version="1.1"
   id="svg20"
   sodipodi:docname="origami.svg"
   inkscape:version="0.92.4 5da689c313, 2019-01-14">
  <metadata
     id="metadata26">
    <rdf:RDF>
      <cc:Work
         rdf:about="">
        <dc:format>image/svg+xml</dc:format>
        <dc:type
           rdf:resource="http://purl.org/dc/dcmitype/StillImage" />
        <dc:title></dc:title>
      </cc:Work>
    </rdf:RDF>
  </metadata>
  <defs
     id="defs24" />
  <sodipodi:namedview
     pagecolor="#ffffff"
     bordercolor="#666666"
     borderopacity="1"
     objecttolerance="10"
     gridtolerance="10"
     guidetolerance="10"
     inkscape:pageopacity="0"
     inkscape:pageshadow="2"
     inkscape:window-width="1920"
     inkscape:window-height="1080"
     id="namedview22"
     showgrid="false"
     fit-margin-top="0"
     fit-margin-left="0"
     fit-margin-right="0"
     fit-margin-bottom="0"
     inkscape:zoom="0.34637965"
     inkscape:cx="-184.07966"
     inkscape:cy="542.09121"
     inkscape:window-x="0"
     inkscape:window-y="0"
     inkscape:window-maximized="0"
     inkscape:current-layer="svg20" />
  <g
     id="g41"
     transform="translate(95.121267,-31.119885)">
    <path
       id="path2"
       d="M 374.82031,354.09766 502,272.69531 457.86719,440.28516 Z m 0,0"
       inkscape:connector-curvature="0"
       style="fill:#60a4ff" />
    <path
       id="path4"
       d="m 184.98828,156.89062 v 283.63672 h 0.33984 L 324.22266,301.53516 Z m 0,0"
       inkscape:connector-curvature="0"
       style="fill:#9bc6ff" />
    <path
       id="path6"
       d="M 324.22266,301.53516 185.32812,440.52734 h 272.69141 z m 0,0"
       inkscape:connector-curvature="0"
       style="fill:#eff3f3" />
    <path
       id="path8"
       d="M 85.835938,250.61719 10,379.68359 92.265625,361.33984 85.988281,250.69531 Z m 0,0"
       inkscape:connector-curvature="0"
       style="fill:#9bc6ff" />
    <path
       id="path10"
       d="m 85.988281,250.69531 6.277344,110.64453 0.644531,-0.13281 42.578124,79.32031 h 49.5 V 299.91016 Z m 0,0"
       inkscape:connector-curvature="0"
       style="fill:#eff3f3" />
    <path
       id="path12"
       d="M 391.23437,121.25391 422.34375,10.5 282.69531,98.292969 l 50.59766,212.664061 3.60547,3.7461 28.57031,-101.71094"
       inkscape:connector-curvature="0"
       style="fill:#9bc6ff" />
    <path
       id="path14"
       d="m 378.48828,176.60547 c -4.23437,0 -8.07812,-2.76172 -9.45312,-6.75781 -1.33594,-3.88282 -0.0859,-8.3711 3.11328,-10.96875 3.29687,-2.67579 8.00781,-3 11.625,-0.76172 3.5625,2.20703 5.40625,6.58984 4.48047,10.67578 -1.02344,4.51562 -5.13282,7.8125 -9.76563,7.8125 z m 0,0"
       inkscape:connector-curvature="0" />
    <path
       id="path16"
       d="M 184.98828,156.89062 333.29297,310.95703 282.69531,98.292969 Z m 0,0"
       inkscape:connector-curvature="0"
       style="fill:#eff3f3" />
    <path
       id="path18"
       d="m 507.88672,264.61328 c -3.32813,-2.42969 -7.80469,-2.5625 -11.27735,-0.33984 l -120.27343,76.98047 -28.26172,-29.35938 27.02344,-96.19922 c 1.49218,-5.3164 -1.60547,-10.83593 -6.92579,-12.33203 -5.32031,-1.49609 -10.83593,1.60547 -12.33203,6.92578 l -19.60547,69.8086 -42.14843,-177.15235 111.61328,-70.171872 -24.09375,85.773442 c -1.49219,5.32031 1.60937,10.83984 6.92578,12.33203 5.32031,1.49609 10.83594,-1.60547 12.33203,-6.92188 L 431.96875,13.203125 c 1.12109,-3.980469 -0.32813,-8.238281 -3.64063,-10.714844 -3.3125,-2.4765622 -7.80859,-2.652343 -11.30859,-0.453125 L 277.48437,89.757812 179.84766,148.3125 c -0.0273,0.0156 -0.16016,0.0937 -0.36329,0.21094 -2.9414,1.72656 -4.66015,4.95703 -4.49609,8.36328 V 283.77344 L 90.4375,241.73828 c -0.0078,-0.004 -0.01563,-0.008 -0.02734,-0.0117 l -0.148437,-0.0742 c -4.703125,-2.32031 -10.394531,-0.61718 -13.046875,3.89844 L 1.378906,374.61719 c -2.015625,3.43359 -1.804687,7.73437 0.539063,10.95312 1.90625,2.61719 4.929687,4.11719 8.082031,4.11328 1.832031,-0.004 77.679688,-17.07812 77.679688,-17.07812 l 39.000002,72.65234 c 1.74218,3.2461 5.125,5.26953 8.80859,5.26953 h 322.12109 c 3.5625,0 7.00782,-1.6914 8.89454,-4.71093 0.92578,-1.47657 1.40234,-3.10157 1.49218,-4.73047 l 43.67188,-165.84375 c 1.05078,-3.98438 -0.44922,-8.20703 -3.78125,-10.62891 z M 194.98828,416.71094 V 181.69922 L 310.21875,301.40234 Z M 276.12891,113.89062 315.08203,277.61719 200.90625,159.00391 Z M 77.855469,283.9375 l 3.945312,69.48828 -51.527343,11.49219 z m 24.187501,73.13672 -5.097658,-89.76563 78.042968,38.80078 v 124.41797 h -33.51953 z m 107.41406,73.45312 114.63281,-114.71093 110.42188,114.71093 z m 243.26953,-9.98828 -62.23828,-64.59765 95.3125,-61.00782 z m 0,0"
       inkscape:connector-curvature="0" />
  </g>
  <text
     xml:space="preserve"
     style="font-style:normal;font-variant:normal;font-weight:normal;font-stretch:normal;font-size:30.05870438px;line-height:1.25;font-family:'Raleway Black';-inkscape-font-specification:'Raleway Black, ';letter-spacing:0px;word-spacing:0px;fill:#000000;fill-opacity:1;stroke:none;stroke-width:0.75146765"
     x="-19.838745"
     y="599.62067"
     id="text30-5"><tspan
       sodipodi:role="line"
       id="tspan28-7"
       x="-19.838745"
       y="599.62067"
       style="font-style:normal;font-variant:normal;font-weight:normal;font-stretch:normal;font-size:200.39135742px;font-family:'Raleway Thin';-inkscape-font-specification:'Raleway Thin, ';stroke-width:0.75146765">Birdland</tspan></text>
</svg>
